<svg xmlns="http://www.w3.org/2000/svg" viewBox="0 0 96.62 96.61"><defs><style>.cls-1{fill:#c9ac32;}.cls-2{fill:#edcf54;}</style></defs><title>Ativo 18</title><g id="Camada_2" data-name="Camada 2"><g id="Objects"><path class="cls-1" d="M51.12,32.46a16.32,16.32,0,0,0-2.81-.26,16.11,16.11,0,0,0,0,32.21,16.32,16.32,0,0,0,2.81-.26,18.76,18.76,0,0,1,0-31.69Z"/><path class="cls-2" d="M92.23,43.92H79a30.68,30.68,0,0,0-1.91-7.17l11.44-6.6a4.39,4.39,0,0,0-4.39-7.6L72.7,29.15a30.93,30.93,0,0,0-5.24-5.24l6.61-11.44a4.39,4.39,0,0,0-7.61-4.39l-6.6,11.43a31,31,0,0,0-7.15-1.9V4.39a4.4,4.4,0,0,0-8.79,0V17.61a30.73,30.73,0,0,0-7.16,1.91L30.16,8.08a4.39,4.39,0,0,0-7.61,4.39l6.61,11.45a31.62,31.62,0,0,0-5.24,5.23l-11.45-6.6a4.39,4.39,0,1,0-4.39,7.6l11.44,6.61a31,31,0,0,0-1.9,7.16H4.39a4.39,4.39,0,0,0,0,8.78H17.63a30.49,30.49,0,0,0,1.89,7.15L8.08,66.46a4.39,4.39,0,0,0,2.2,8.2,4.34,4.34,0,0,0,2.19-.59l11.46-6.61a31.56,31.56,0,0,0,5.23,5.23L22.55,84.15a4.39,4.39,0,0,0,7.6,4.39l6.61-11.45A30.73,30.73,0,0,0,43.92,79V92.22a4.4,4.4,0,0,0,8.79,0V79a30.52,30.52,0,0,0,7.15-1.91l6.61,11.44a4.38,4.38,0,0,0,3.81,2.2,4.33,4.33,0,0,0,2.18-.59,4.39,4.39,0,0,0,1.61-6L67.46,72.7a31.3,31.3,0,0,0,5.24-5.24l11.45,6.61a4.34,4.34,0,0,0,2.19.59,4.39,4.39,0,0,0,2.2-8.2L77.1,59.86A30.73,30.73,0,0,0,79,52.7H92.23a4.39,4.39,0,1,0,0-8.78ZM48.31,69.78A21.47,21.47,0,1,1,69.78,48.31,21.47,21.47,0,0,1,48.31,69.78Z"/></g></g></svg>